<?xml version="1.0" encoding="UTF-8"?>
<svg id="Capa_2" data-name="Capa 2" xmlns="http://www.w3.org/2000/svg" viewBox="0 0 453.562 65.445">
  <defs>
    <style>
      .cls-1 {
        fill: #fff;
      }
    </style>
  </defs>
  <g id="Capa_1-2" data-name="Capa 1">
    <g>
      <path class="cls-1" d="M0,.279h21.412v23.832h26.439V.279h21.411v65.166h-21.411v-24.577h-26.439v24.577H0V.279Z"/>
      <path class="cls-1" d="M85.541,48.688h20.76v-31.652h-20.76V.279h62.838v16.757h-20.667v31.652h20.667v16.757h-62.838v-16.757Z"/>
      <path class="cls-1" d="M164.657.279h56.415v15.826h-34.91v12.103h33.048v14.895h-33.048v22.343h-21.505V.279Z"/>
      <path class="cls-1" d="M233.553.279h21.412v48.409h34.91v16.757h-56.322V.279Z"/>
      <path class="cls-1" d="M301.191,48.688h20.76v-31.652h-20.76V.279h62.838v16.757h-20.667v31.652h20.667v16.757h-62.838v-16.757Z"/>
      <path class="cls-1" d="M400.593,32.676L375.271,0h25.508l4.376,5.771c5.492,7.075,7.168,11.916,7.168,21.04v-1.024h4.282v1.024c0-8.937,1.583-13.778,7.075-21.132l4.375-5.679h25.508l-25.321,32.676,25.321,32.769h-25.508l-4.375-5.772c-5.399-7.168-7.075-12.009-7.075-21.132v1.024h-4.282v-1.024c0,8.937-1.583,13.778-7.075,21.04l-4.469,5.865h-25.508l25.322-32.769Z"/>
    </g>
  </g>
</svg>